<?xml version="1.0" encoding="UTF-8" standalone="no"?>
<!-- Created with Inkscape (http://www.inkscape.org/) -->

<svg
   xmlns:dc="http://purl.org/dc/elements/1.1/"
   xmlns:cc="http://creativecommons.org/ns#"
   xmlns:rdf="http://www.w3.org/1999/02/22-rdf-syntax-ns#"
   xmlns:svg="http://www.w3.org/2000/svg"
   xmlns="http://www.w3.org/2000/svg"
   version="1.1"
   width="100"
   height="100"
   id="logo_svgDoc">
  <defs
     id="defs7198">
    <clipPath
       id="clipPath7239">
      <path
         d="m 0,595.28 841.89,0 L 841.89,0 0,0 0,595.28 z"
         id="path7241" />
    </clipPath>
  </defs>
  <metadata
     id="metadata7201">
    <rdf:RDF>
      <cc:Work
         rdf:about="">
        <dc:format>image/svg+xml</dc:format>
        <dc:type
           rdf:resource="http://purl.org/dc/dcmitype/StillImage" />
        <dc:title></dc:title>
      </cc:Work>
    </rdf:RDF>
  </metadata>
  <g
     id="logo_group">
    <rect
       width="100"
       height="100"
       x="0"
       y="0"
       id="logo_bg"
       style="color:#000000;fill:#000000;fill-opacity:1;stroke:none;stroke-width:12.5;marker:none;visibility:visible;display:inline;overflow:visible;enable-background:accumulate" />
    <path
       d="m 42.604184,7.8385521 c -0.125,0 -0.221354,0.096354 -0.221354,0.2213542 l 0,0.091146 c 0,0.1244792 0.09635,0.2343751 0.221354,0.2343751 l 14.765621,0 c 0.125,0 0.221354,-0.1098959 0.221354,-0.2343751 l 0,-0.091146 c 0,-0.125 -0.09635,-0.2213542 -0.221354,-0.2213542 l -14.765621,0 z M 31.236995,11.093761 c -0.149479,0 -0.260417,0.123437 -0.260417,0.273437 l 0,0.260417 c 0,0.149479 0.110938,0.273437 0.260417,0.273437 l 14.67448,0 c 0.14948,0 0.273438,-0.123958 0.273438,-0.273437 l 0,-0.260417 c 0,-0.15 -0.123958,-0.273437 -0.273438,-0.273437 l -14.67448,0 z m 22.825518,0 c -0.149479,0 -0.273438,0.123437 -0.273438,0.273437 l 0,0.260417 c 0,0.149479 0.123959,0.273437 0.273438,0.273437 l 14.661458,0 c 0.14948,0 0.273438,-0.123958 0.273438,-0.273437 l 0,-0.260417 c 0,-0.15 -0.123958,-0.273437 -0.273438,-0.273437 l -14.661458,0 z m -11.171871,2.890625 c -0.283854,0 -0.520833,0.235937 -0.520833,0.520833 l 0,0.898437 c 0,0.284375 0.236979,0.520834 0.520833,0.520834 l 14.179683,0 c 0.283855,0 0.520834,-0.236459 0.520834,-0.520834 l 0,-0.898437 c 0,-0.284896 -0.236979,-0.520833 -0.520834,-0.520833 l -14.179683,0 z m -23.059897,0.572916 c -0.15,0 -0.273438,0.110417 -0.273438,0.260417 l 0,0.260417 c 0,0.15 0.123438,0.273437 0.273438,0.273437 l 14.674479,0 c 0.15,0 0.273438,-0.123437 0.273438,-0.273437 l 0,-0.260417 c 0,-0.15 -0.123438,-0.260417 -0.273438,-0.260417 l -14.674479,0 z m 45.638018,0 c -0.149479,0 -0.273437,0.110417 -0.273437,0.260417 l 0,0.260417 c 0,0.15 0.123958,0.273437 0.273437,0.273437 l 14.674479,0 c 0.149479,0 0.273438,-0.123437 0.273438,-0.273437 l 0,-0.260417 c 0,-0.15 -0.123959,-0.260417 -0.273438,-0.260417 l -14.674479,0 z m -33.984372,2.708334 c -0.284896,0 -0.520834,0.236458 -0.520834,0.520833 l 0,1.106771 c 0,0.284375 0.235938,0.520833 0.520834,0.520833 l 14.179689,0 c 0.284895,0 0.507812,-0.236458 0.507812,-0.520833 l 0,-1.106771 c 0,-0.284375 -0.222917,-0.520833 -0.507812,-0.520833 l -14.179689,0 z m 22.812497,0 c -0.284896,0 -0.507813,0.236458 -0.507813,0.520833 l 0,1.106771 c 0,0.284375 0.222917,0.520833 0.507813,0.520833 l 14.192708,0 c 0.283855,0 0.507813,-0.236458 0.507813,-0.520833 l 0,-1.106771 c 0,-0.284375 -0.223958,-0.520833 -0.507813,-0.520833 l -14.192708,0 z m -43.307289,0.742187 c -0.15,0 -0.273438,0.123438 -0.273438,0.273438 l 0,0.117187 c 0,0.149479 0.123438,0.273438 0.273438,0.273438 l 12.096354,0 c 0.15,0 0.273438,-0.123959 0.273438,-0.273438 l 0,-0.117187 c 0,-0.15 -0.123438,-0.273438 -0.273438,-0.273438 l -12.096354,0 z m 65.898435,0 c -0.149479,0 -0.273438,0.123438 -0.273438,0.273438 l 0,0.117187 c 0,0.149479 0.123959,0.273438 0.273438,0.273438 l 12.096354,0 c 0.149479,0 0.273438,-0.123959 0.273438,-0.273438 l 0,-0.117187 c 0,-0.15 -0.123959,-0.273438 -0.273438,-0.273438 l -12.096354,0 z m -33.997392,2.421875 c -0.283854,0 -0.520833,0.236979 -0.520833,0.520833 l 0,1.54948 c 0,0.284375 0.236979,0.507812 0.520833,0.507812 l 14.179683,0 c 0.283855,0 0.520834,-0.223437 0.520834,-0.507812 l 0,-1.54948 c 0,-0.283854 -0.236979,-0.520833 -0.520834,-0.520833 l -14.179683,0 z M 20.06512,20.950531 c -0.283854,0 -0.507813,0.223438 -0.507813,0.507813 l 0,0.520833 c 0,0.284375 0.223959,0.520834 0.507813,0.520834 l 14.192708,0 c 0.284375,0 0.507813,-0.236459 0.507813,-0.520834 l 0,-0.520833 c 0,-0.284375 -0.223438,-0.507813 -0.507813,-0.507813 l -14.192708,0 z m 45.651039,0 c -0.284896,0 -0.520833,0.223438 -0.520833,0.507813 l 0,0.520833 c 0,0.284375 0.235937,0.520834 0.520833,0.520834 l 14.179687,0 c 0.283855,0 0.507813,-0.236459 0.507813,-0.520834 l 0,-0.520833 c 0,-0.284375 -0.223958,-0.507813 -0.507813,-0.507813 l -14.179687,0 z m -34.231768,2.994792 c -0.284896,0 -0.520834,0.236979 -0.520834,0.520833 l 0,1.289063 c 0,0.284375 0.235938,0.507812 0.520834,0.507812 l 14.179689,0 c 0.284895,0 0.507812,-0.223437 0.507812,-0.507812 l 0,-1.289063 c 0,-0.283854 -0.222917,-0.520833 -0.507812,-0.520833 l -14.179689,0 z m 22.812497,0 c -0.284896,0 -0.507813,0.236979 -0.507813,0.520833 l 0,1.289063 c 0,0.284375 0.222917,0.507812 0.507813,0.507812 l 14.192708,0 c 0.283855,0 0.507813,-0.223437 0.507813,-0.507812 l 0,-1.289063 c 0,-0.283854 -0.223958,-0.520833 -0.507813,-0.520833 l -14.192708,0 z m -43.307289,0.638021 c -0.146875,0 -0.273438,0.127604 -0.273438,0.273437 l 0,0.494792 c 0,0.146354 0.126563,0.260417 0.273438,0.260417 l 12.096354,0 c 0.146354,0 0.273438,-0.114063 0.273438,-0.260417 l 0,-0.494792 c 0,-0.145833 -0.127084,-0.273437 -0.273438,-0.273437 l -12.096354,0 z m 65.885414,0 c -0.146354,0 -0.260417,0.127604 -0.260417,0.273437 l 0,0.494792 c 0,0.146354 0.114063,0.260417 0.260417,0.260417 l 12.109375,0 c 0.145834,0 0.260417,-0.114063 0.260417,-0.260417 l 0,-0.494792 c 0,-0.145833 -0.114583,-0.273437 -0.260417,-0.273437 l -12.109375,0 z m -56.91406,2.877604 c -0.234621,0.04856 -0.403646,0.258529 -0.403646,0.507813 l 0,1.041666 c 0,0.284375 0.223959,0.507813 0.507813,0.507813 l 14.192708,0 c 0.284375,0 0.507813,-0.223438 0.507813,-0.507813 l 0,-1.041666 c 0,-0.284896 -0.223438,-0.507813 -0.507813,-0.507813 l -14.192708,0 c -0.03546,0 -0.07065,-0.0069 -0.104167,0 z m 22.825522,0 c -0.23472,0.04856 -0.416666,0.258529 -0.416666,0.507813 l 0,1.041666 c 0,0.284375 0.236979,0.507813 0.520833,0.507813 l 14.179683,0 c 0.283855,0 0.520834,-0.223438 0.520834,-0.507813 l 0,-1.041666 c 0,-0.284896 -0.236979,-0.507813 -0.520834,-0.507813 l -14.179683,0 c -0.03546,0 -0.07063,-0.0069 -0.104167,0 z m 22.825517,0 c -0.235221,0.04856 -0.416666,0.258529 -0.416666,0.507813 l 0,1.041666 c 0,0.284375 0.235937,0.507813 0.520833,0.507813 l 14.179687,0 c 0.283855,0 0.507813,-0.223438 0.507813,-0.507813 l 0,-1.041666 c 0,-0.284896 -0.223958,-0.507813 -0.507813,-0.507813 l -14.179687,0 c -0.03563,0 -0.07056,-0.0069 -0.104167,0 z m -34.127601,3.372396 c -0.284896,0 -0.520834,0.236458 -0.520834,0.520833 l 0,1.028646 c 0,0.284375 0.235938,0.520834 0.520834,0.520834 l 14.179689,0 c 0.284895,0 0.507812,-0.236459 0.507812,-0.520834 l 0,-1.028646 c 0,-0.284375 -0.222917,-0.520833 -0.507812,-0.520833 l -14.179689,0 z m 22.812497,0 c -0.284896,0 -0.507813,0.236458 -0.507813,0.520833 l 0,1.028646 c 0,0.284375 0.222917,0.520834 0.507813,0.520834 l 14.192708,0 c 0.283855,0 0.507813,-0.236459 0.507813,-0.520834 l 0,-1.028646 c 0,-0.284375 -0.223958,-0.520833 -0.507813,-0.520833 l -14.192708,0 z m -43.059893,0.455729 c -0.284375,0 -0.520834,0.236979 -0.520834,0.520834 l 0,0.130208 c 0,0.284375 0.236459,0.507812 0.520834,0.507812 l 11.601562,0 c 0.284896,0 0.520834,-0.223437 0.520834,-0.507812 l 0,-0.130208 c 0,-0.283855 -0.235938,-0.520834 -0.520834,-0.520834 l -11.601562,0 z m 65.898435,0 c -0.283854,0 -0.520834,0.236979 -0.520834,0.520834 l 0,0.130208 c 0,0.284375 0.23698,0.507812 0.520834,0.507812 l 11.601562,0 c 0.284896,0 0.520834,-0.223437 0.520834,-0.507812 l 0,-0.130208 c 0,-0.283855 -0.235938,-0.520834 -0.520834,-0.520834 l -11.601562,0 z m -57.07031,2.994792 c -0.283854,0 -0.507813,0.235937 -0.507813,0.520833 l 0,0.898438 c 0,0.284375 0.223959,0.520833 0.507813,0.520833 l 14.192708,0 c 0.284375,0 0.507813,-0.236458 0.507813,-0.520833 l 0,-0.898438 c 0,-0.284896 -0.223438,-0.520833 -0.507813,-0.520833 l -14.192708,0 z m 45.651039,0 c -0.284896,0 -0.520833,0.235937 -0.520833,0.520833 l 0,0.898438 c 0,0.284375 0.235937,0.520833 0.520833,0.520833 l 14.179687,0 c 0.283855,0 0.507813,-0.236458 0.507813,-0.520833 l 0,-0.898438 c 0,-0.284896 -0.223958,-0.520833 -0.507813,-0.520833 l -14.179687,0 z m -22.825517,0.195312 c -0.283854,0 -0.520833,0.236459 -0.520833,0.520834 l 0,0.507812 c 0,0.283854 0.236979,0.520834 0.520833,0.520834 l 14.179683,0 c 0.283855,0 0.520834,-0.23698 0.520834,-0.520834 l 0,-0.507812 c 0,-0.284375 -0.236979,-0.520834 -0.520834,-0.520834 l -14.179683,0 z m -31.653647,3.450521 c -0.284375,0 -0.520834,0.235938 -0.520834,0.520834 l 0,0.390625 c 0,0.283854 0.236459,0.507812 0.520834,0.507812 l 11.601562,0 c 0.284896,0 0.520834,-0.223958 0.520834,-0.507812 l 0,-0.390625 c 0,-0.284896 -0.235938,-0.520834 -0.520834,-0.520834 l -11.601562,0 z m 20.247396,0 c -0.284896,0 -0.520834,0.235938 -0.520834,0.520834 l 0,0.390625 c 0,0.283854 0.235938,0.507812 0.520834,0.507812 l 14.179689,0 c 0.284895,0 0.507812,-0.223958 0.507812,-0.507812 l 0,-0.390625 c 0,-0.284896 -0.222917,-0.520834 -0.507812,-0.520834 l -14.179689,0 z m 22.812497,0 c -0.284896,0 -0.507813,0.235938 -0.507813,0.520834 l 0,0.390625 c 0,0.283854 0.222917,0.507812 0.507813,0.507812 l 14.192708,0 c 0.283855,0 0.507813,-0.223958 0.507813,-0.507812 l 0,-0.390625 c 0,-0.284896 -0.223958,-0.520834 -0.507813,-0.520834 l -14.192708,0 z m 22.838542,0 c -0.283854,0 -0.520834,0.235938 -0.520834,0.520834 l 0,0.390625 c 0,0.283854 0.23698,0.507812 0.520834,0.507812 l 11.601562,0 c 0.284896,0 0.520834,-0.223958 0.520834,-0.507812 l 0,-0.390625 c 0,-0.284896 -0.235938,-0.520834 -0.520834,-0.520834 l -11.601562,0 z m -57.07031,3.385417 c -0.283854,0 -0.507813,0.236458 -0.507813,0.520835 l 0,0.377605 c 0,0.284375 0.223959,0.520833 0.507813,0.520833 l 14.192708,0 c 0.284375,0 0.507813,-0.236458 0.507813,-0.520833 l 0,-0.377605 c 0,-0.284377 -0.223438,-0.520835 -0.507813,-0.520835 l -14.192708,0 z m 45.651039,0 c -0.284896,0 -0.520833,0.236458 -0.520833,0.520835 l 0,0.377605 c 0,0.284375 0.235937,0.520833 0.520833,0.520833 l 14.179687,0 c 0.283855,0 0.507813,-0.236458 0.507813,-0.520833 l 0,-0.377605 c 0,-0.284377 -0.223958,-0.520835 -0.507813,-0.520835 l -14.179687,0 z M 42.643246,41.54949 c -0.15,0 -0.260416,0.12344 -0.260416,0.27344 l 0,0.403645 c 0,0.14948 0.110416,0.273438 0.260416,0.273438 l 14.674475,0 c 0.149479,0 0.273438,-0.123958 0.273438,-0.273438 l 0,-0.403645 c 0,-0.15 -0.123959,-0.27344 -0.273438,-0.27344 l -14.674475,0 z m -31.406251,3.151044 c -0.284375,0 -0.520834,0.236458 -0.520834,0.520833 l 0,0.377604 c 0,0.284896 0.236459,0.520834 0.520834,0.520834 l 11.601562,0 c 0.284896,0 0.520834,-0.235938 0.520834,-0.520834 l 0,-0.377604 c 0,-0.284375 -0.235938,-0.520833 -0.520834,-0.520833 l -11.601562,0 z m 65.898435,0 c -0.283854,0 -0.520834,0.236458 -0.520834,0.520833 l 0,0.377604 c 0,0.284896 0.23698,0.520834 0.520834,0.520834 l 11.601562,0 c 0.284896,0 0.520834,-0.235938 0.520834,-0.520834 l 0,-0.377604 c 0,-0.284375 -0.235938,-0.520833 -0.520834,-0.520833 l -11.601562,0 z m -45.898435,0.299479 c -0.149479,0 -0.260417,0.123437 -0.260417,0.273437 l 0,0.260417 c 0,0.15 0.110938,0.273438 0.260417,0.273438 l 14.67448,0 c 0.14948,0 0.273438,-0.123438 0.273438,-0.273438 l 0,-0.260417 c 0,-0.15 -0.123958,-0.273437 -0.273438,-0.273437 l -14.67448,0 z m 22.825518,0 c -0.149479,0 -0.273438,0.123437 -0.273438,0.273437 l 0,0.260417 c 0,0.15 0.123959,0.273438 0.273438,0.273438 l 14.661458,0 c 0.14948,0 0.273438,-0.123438 0.273438,-0.273438 l 0,-0.260417 c 0,-0.15 -0.123958,-0.273437 -0.273438,-0.273437 l -14.661458,0 z M 19.830745,48.38543 c -0.15,0 -0.273438,0.123437 -0.273438,0.273437 l 0,0.260417 c 0,0.149479 0.123438,0.273437 0.273438,0.273437 l 14.674479,0 c 0.15,0 0.273438,-0.123958 0.273438,-0.273437 l 0,-0.260417 c 0,-0.15 -0.123438,-0.273437 -0.273438,-0.273437 l -14.674479,0 z m 45.638018,0 c -0.149479,0 -0.273437,0.123437 -0.273437,0.273437 l 0,0.260417 c 0,0.149479 0.123958,0.273437 0.273437,0.273437 l 14.674479,0 c 0.149479,0 0.273438,-0.123958 0.273438,-0.273437 l 0,-0.260417 c 0,-0.15 -0.123959,-0.273437 -0.273438,-0.273437 l -14.674479,0 z m -54.479164,3.320312 c -0.149479,0 -0.273438,0.123958 -0.273438,0.273438 l 0,0.390625 c 0,0.149479 0.123959,0.273437 0.273438,0.273437 l 12.096354,0 c 0.149479,0 0.273438,-0.123958 0.273438,-0.273437 l 0,-0.390625 c 0,-0.14948 -0.123959,-0.273438 -0.273438,-0.273438 l -12.096354,0 z m 65.898435,0 c -0.149479,0 -0.273438,0.123958 -0.273438,0.273438 l 0,0.390625 c 0,0.149479 0.123959,0.273437 0.273438,0.273437 l 12.096354,0 c 0.149479,0 0.273438,-0.123958 0.273438,-0.273437 l 0,-0.390625 c 0,-0.14948 -0.123959,-0.273438 -0.273438,-0.273438 l -12.096354,0 z m -66.171873,7.799479 0,0.742188 78.528644,0 0,-0.742188 -78.528644,0 z m 1.757813,6.901042 c -0.565104,0 -1.028646,0.202604 -1.393229,0.585938 -0.520834,0.546354 -0.507813,1.169791 -0.507813,2.239583 0,1.070312 -0.013,1.680208 0.507813,2.226562 0.364583,0.382813 0.828125,0.598959 1.393229,0.598959 0.565625,0 1.042187,-0.216146 1.40625,-0.598959 0.520833,-0.546354 0.507812,-1.15625 0.507812,-2.226562 0,-1.069792 0.013,-1.693229 -0.507812,-2.239583 -0.364063,-0.383334 -0.840625,-0.585938 -1.40625,-0.585938 z m 4.947917,0 c -1.101042,0 -1.770834,0.659375 -1.770834,1.627604 0,0.453646 0.117709,0.809896 0.377604,1.067709 0.23073,0.226562 0.583855,0.380729 1.015625,0.442708 l 0.625,0.09115 c 0.3125,0.04635 0.438542,0.101041 0.572917,0.234375 0.141146,0.132812 0.208333,0.330729 0.208333,0.572916 0,0.539063 -0.402083,0.859375 -1.09375,0.859375 -0.543229,0 -0.967708,-0.127083 -1.354166,-0.533854 l -0.533854,0.559896 c 0.505729,0.539063 1.079166,0.729167 1.875,0.729167 1.108333,0 1.901041,-0.604167 1.901041,-1.627604 0,-0.476563 -0.139583,-0.880209 -0.429687,-1.145834 -0.223438,-0.210937 -0.498959,-0.339062 -0.989584,-0.416666 l -0.598958,-0.09115 c -0.245312,-0.03904 -0.465104,-0.135417 -0.598958,-0.260417 -0.141146,-0.132812 -0.195313,-0.304687 -0.195313,-0.507812 0,-0.491667 0.338542,-0.872396 0.963542,-0.872396 0.446354,0 0.831771,0.102083 1.158854,0.429687 l 0.507813,-0.533854 c -0.453646,-0.445312 -0.941667,-0.625 -1.640625,-0.625 z m 9.440104,0 c -0.565104,0 -1.028646,0.202604 -1.393229,0.585938 -0.520313,0.546354 -0.507813,1.169791 -0.507813,2.239583 0,1.070312 -0.0125,1.680208 0.507813,2.226562 0.364583,0.382813 0.828125,0.598959 1.393229,0.598959 0.565625,0 1.028646,-0.216146 1.393229,-0.598959 0.520833,-0.546354 0.507812,-1.15625 0.507812,-2.226562 0,-1.069792 0.013,-1.693229 -0.507812,-2.239583 -0.364583,-0.383334 -0.827604,-0.585938 -1.393229,-0.585938 z m 45.247393,0 c -1.102083,0 -1.770833,0.659375 -1.770833,1.627604 0,0.453646 0.117187,0.809896 0.377604,1.067709 0.23125,0.226562 0.583333,0.380729 1.015625,0.442708 l 0.611979,0.09115 c 0.3125,0.04635 0.452604,0.101041 0.585938,0.234375 0.141145,0.132812 0.208333,0.330729 0.208333,0.572916 0,0.539063 -0.402083,0.859375 -1.09375,0.859375 -0.543229,0 -0.967708,-0.127083 -1.354167,-0.533854 l -0.533854,0.559896 c 0.505729,0.539063 1.079688,0.729167 1.875,0.729167 1.108854,0 1.901042,-0.604167 1.901042,-1.627604 0,-0.476563 -0.139584,-0.880209 -0.429688,-1.145834 -0.222916,-0.210937 -0.499479,-0.339062 -0.989583,-0.416666 l -0.598958,-0.09115 c -0.244792,-0.03904 -0.464584,-0.135417 -0.598959,-0.260417 -0.141666,-0.132812 -0.195312,-0.304687 -0.195312,-0.507812 0,-0.491667 0.3375,-0.872396 0.963541,-0.872396 0.445313,0 0.81875,0.102083 1.145834,0.429687 l 0.520833,-0.533854 c -0.453646,-0.445312 -0.942187,-0.625 -1.640625,-0.625 z m 15.481771,0 c -1.101042,0 -1.770833,0.659375 -1.770833,1.627604 0,0.453646 0.130208,0.809896 0.390625,1.067709 0.23125,0.226562 0.571354,0.380729 1.002604,0.442708 l 0.625,0.09115 c 0.3125,0.04635 0.451562,0.101041 0.585937,0.234375 0.141146,0.132812 0.208334,0.330729 0.208334,0.572916 0,0.539063 -0.402084,0.859375 -1.09375,0.859375 -0.543229,0 -0.967709,-0.127083 -1.354167,-0.533854 l -0.533854,0.559896 c 0.505729,0.539063 1.078646,0.729167 1.875,0.729167 1.107812,0 1.901042,-0.604167 1.901042,-1.627604 0,-0.476563 -0.139584,-0.880209 -0.429688,-1.145834 -0.223958,-0.210937 -0.498437,-0.339062 -0.989583,-0.416666 l -0.611979,-0.09115 c -0.244792,-0.03904 -0.451563,-0.135417 -0.585938,-0.260417 -0.141667,-0.132812 -0.208333,-0.304687 -0.208333,-0.507812 0,-0.491667 0.351562,-0.872396 0.976562,-0.872396 0.446354,0 0.81875,0.102083 1.145834,0.429687 l 0.520833,-0.533854 c -0.453646,-0.445312 -0.955208,-0.625 -1.653646,-0.625 z m -66.874998,0.03904 0,5.559896 3.346355,0 0,-0.755209 -2.539063,0 0,-4.804687 -0.807292,0 z m 12.916667,0 -1.940104,5.559896 0.859375,0 0.364583,-1.106771 2.096355,0 0.364583,1.106771 0.846354,0 -1.940104,-5.559896 -0.651042,0 z m 3.671875,0 0,5.559896 0.807292,0 0,-3.90625 2.447917,3.90625 0.729166,0 0,-5.559896 -0.794271,0 0,3.90625 -2.447916,-3.90625 -0.742188,0 z m 5.729168,0 0,5.559896 1.848959,0 c 0.55,0 1.032291,-0.169271 1.367187,-0.520834 0.572396,-0.601562 0.546875,-1.486979 0.546875,-2.291666 0,-0.804688 0.02554,-1.625 -0.546875,-2.226563 -0.334896,-0.351562 -0.817187,-0.520833 -1.367187,-0.520833 l -1.848959,0 z m 8.59375,0 -1.940104,5.559896 0.859375,0 0.364583,-1.106771 2.08333,0 0.364583,1.106771 0.859375,0 -1.940104,-5.559896 -0.651038,0 z m 3.65885,0 0,5.559896 0.794271,0 0,-1.614584 0.898438,-1.119791 1.484375,2.734375 0.95052,0 -1.901041,-3.372396 1.71875,-2.1875 -0.976563,0 -2.174479,2.799479 0,-2.799479 -0.794271,0 z m 5.221354,0 0,5.559896 3.385417,0 0,-0.755209 -2.578125,0 0,-1.666666 2.200521,0 0,-0.755209 -2.200521,0 0,-1.627604 2.578125,0 0,-0.755208 -3.385417,0 z m 4.83073,0 0,5.559896 0.807291,0 0,-2.34375 1.002605,0 1.119791,2.34375 0.9375,0 -1.223958,-2.460938 c 0.595312,-0.171875 1.054687,-0.674479 1.054687,-1.471354 0,-0.945313 -0.636458,-1.627604 -1.640625,-1.627604 l -2.057291,0 z m 9.947916,0 0,5.559896 0.807292,0 0,-2.421875 2.148438,0 0,2.421875 0.807291,0 0,-5.559896 -0.807291,0 0,2.382812 -2.148438,0 0,-2.382812 -0.807292,0 z m 5.416667,0 0,3.684896 c 0,1.148437 0.808854,1.927083 1.888021,1.927083 1.078125,0 1.914063,-0.778646 1.914063,-1.927083 l 0,-3.684896 -0.807292,0 0,3.645833 c 0,0.742188 -0.445313,1.210938 -1.106771,1.210938 -0.661979,0 -1.09375,-0.46875 -1.09375,-1.210938 l 0,-3.645833 -0.794271,0 z m -68.229164,0.716146 c 0.3125,0 0.608333,0.127604 0.794271,0.338541 0.260416,0.296875 0.3125,0.615104 0.3125,1.731771 0,1.117188 -0.05208,1.422396 -0.3125,1.71875 -0.185938,0.210938 -0.481771,0.351563 -0.794271,0.351563 -0.3125,0 -0.595313,-0.140625 -0.78125,-0.351563 -0.259896,-0.296354 -0.3125,-0.601562 -0.3125,-1.71875 0,-1.116667 0.0526,-1.434896 0.3125,-1.731771 0.185937,-0.210937 0.46875,-0.338541 0.78125,-0.338541 z m 14.388021,0 c 0.3125,0 0.595312,0.127604 0.78125,0.338541 0.260416,0.296875 0.3125,0.615104 0.3125,1.731771 0,1.117188 -0.05208,1.422396 -0.3125,1.71875 -0.185938,0.210938 -0.46875,0.351563 -0.78125,0.351563 -0.3125,0 -0.607813,-0.140625 -0.794271,-0.351563 -0.260417,-0.296354 -0.3125,-0.601562 -0.3125,-1.71875 0,-1.116667 0.05208,-1.434896 0.3125,-1.731771 0.186458,-0.210937 0.481771,-0.338541 0.794271,-0.338541 z m 16.966147,0.03904 0.976563,0 c 0.379687,0 0.675,0.119792 0.898437,0.377604 0.275,0.320313 0.286458,0.848959 0.286458,1.614584 0,0.765625 -0.01146,1.359375 -0.286458,1.679687 -0.223437,0.257813 -0.51875,0.377604 -0.898437,0.377604 l -0.976563,0 0,-4.049479 z m 22.317704,0 1.184896,0 c 0.535938,0 0.898438,0.338542 0.898438,0.885417 0,0.546875 -0.3625,0.859375 -0.898438,0.859375 l -1.184896,0 0,-1.744792 z m -32.161455,0.507813 0.794271,2.460937 -1.627605,0 0.833334,-2.460937 z m 17.981772,0 0.807287,2.460937 -1.6276,0 0.820313,-2.460937 z m -11.705731,8.75 c -1.101041,0 -1.770833,0.659375 -1.770833,1.627604 0,0.453646 0.130729,0.809896 0.390625,1.067708 0.230729,0.226563 0.570833,0.380729 1.002604,0.442709 l 0.625,0.09114 c 0.3125,0.04635 0.438542,0.101042 0.572917,0.234375 0.141146,0.132813 0.208333,0.33073 0.208333,0.572917 0,0.539063 -0.402083,0.859375 -1.09375,0.859375 -0.543229,0 -0.967708,-0.127083 -1.354166,-0.533854 l -0.533855,0.559896 c 0.50573,0.539062 1.079167,0.729166 1.875,0.729166 1.108334,0 1.901043,-0.604166 1.901043,-1.627604 0,-0.476562 -0.139583,-0.880208 -0.429688,-1.145833 -0.223438,-0.210938 -0.498959,-0.339063 -0.989584,-0.416667 l -0.598958,-0.09115 c -0.245313,-0.03904 -0.465104,-0.135416 -0.598958,-0.260416 -0.141146,-0.132813 -0.195313,-0.305209 -0.195313,-0.507813 0,-0.492187 0.338542,-0.872396 0.963542,-0.872396 0.446354,0 0.831771,0.101042 1.158854,0.429688 l 0.507814,-0.533854 c -0.453647,-0.444792 -0.941668,-0.625 -1.640627,-0.625 z m 18.255206,0 c -0.550521,0 -1.028125,0.203646 -1.393229,0.585937 -0.520834,0.546875 -0.507813,1.169792 -0.507813,2.239584 0,1.070312 -0.013,1.680208 0.507813,2.226562 0.365104,0.382813 0.842708,0.598958 1.393229,0.598958 0.959375,0 1.709896,-0.596354 1.888021,-1.705729 l -0.807292,0 c -0.126042,0.5625 -0.49375,0.950521 -1.080729,0.950521 -0.3125,0 -0.595313,-0.127083 -0.78125,-0.338542 -0.260417,-0.296875 -0.3125,-0.614583 -0.3125,-1.73177 0,-1.116667 0.05208,-1.434375 0.3125,-1.731771 0.185937,-0.210417 0.46875,-0.338542 0.78125,-0.338542 0.586979,0 0.940625,0.388021 1.067708,0.950521 l 0.820313,0 c -0.185938,-1.109375 -0.913542,-1.705729 -1.888021,-1.705729 z m 4.921875,0 c -0.565625,0 -1.027604,0.203646 -1.393229,0.585937 -0.520834,0.546875 -0.507813,1.169792 -0.507813,2.239584 0,1.070312 -0.013,1.680208 0.507813,2.226562 0.365625,0.382813 0.827604,0.598958 1.393229,0.598958 0.564583,0 1.029167,-0.216145 1.393229,-0.598958 0.520813,-0.546354 0.507813,-1.15625 0.507813,-2.226562 0,-1.069792 0.013,-1.692709 -0.507813,-2.239584 -0.364062,-0.382291 -0.828646,-0.585937 -1.393229,-0.585937 z m 18.90625,0 c -0.565625,0 -1.016146,0.203646 -1.380208,0.585937 -0.520834,0.546875 -0.520834,1.169271 -0.520834,2.239584 0,1.070312 0,1.679687 0.520834,2.226562 0.364062,0.382813 0.830208,0.598958 1.380208,0.598958 0.558333,0 1.057292,-0.192708 1.458334,-0.63802 0.35,-0.390625 0.48177,-0.84375 0.48177,-1.5625 l 0,-0.859375 -1.940104,0 0,0.729166 1.132813,0 0,0.3125 c 0,0.359896 -0.06615,0.638542 -0.260417,0.872396 -0.207292,0.25 -0.522396,0.390625 -0.872396,0.390625 -0.311979,0 -0.594792,-0.127083 -0.78125,-0.338542 -0.260417,-0.296875 -0.3125,-0.614583 -0.3125,-1.73177 0,-1.116667 0.05208,-1.435417 0.3125,-1.731771 0.186458,-0.211459 0.469271,-0.338542 0.78125,-0.338542 0.595313,0 0.985417,0.354167 1.119792,0.963542 l 0.807292,0 c -0.148438,-0.952604 -0.804167,-1.71875 -1.927084,-1.71875 z m -71.653643,0.03904 0,3.684896 c 0,1.148438 0.809375,1.927084 1.888021,1.927084 1.078645,0 1.901041,-0.778646 1.901041,-1.927084 l 0,-3.684896 -0.794271,0 0,3.645834 c 0,0.742187 -0.444791,1.210937 -1.10677,1.210937 -0.66198,0 -1.09375,-0.46875 -1.09375,-1.210937 l 0,-3.645834 -0.794271,0 z m 5.390625,0 0,5.559896 0.807291,0 0,-3.90625 2.447917,3.90625 0.742188,0 0,-5.559896 -0.807292,0 0,3.90625 -2.447917,-3.90625 -0.742187,0 z m 5.664062,0 0,5.559896 0.794271,0 0,-5.559896 -0.794271,0 z m 1.966146,0 1.731771,5.559896 0.625,0 1.757812,-5.559896 -0.846354,0 -1.223958,4.04948 -1.210938,-4.04948 -0.833333,0 z m 5.208333,0 0,5.559896 3.385417,0 0,-0.755208 -2.591146,0 0,-1.666667 2.200521,0 0,-0.755208 -2.200521,0 0,-1.627604 2.591146,0 0,-0.755209 -3.385417,0 z m 4.778646,0 0,5.559896 0.807292,0 0,-2.34375 1.002604,0 1.106771,2.34375 0.9375,0 -1.210937,-2.460937 c 0.594791,-0.171875 1.054687,-0.674479 1.054687,-1.471354 0,-0.945313 -0.636458,-1.627605 -1.640625,-1.627605 l -2.057292,0 z m 9.739585,0 0,5.559896 0.807292,0 0,-5.559896 -0.807292,0 z m 1.927083,0 0,0.755209 1.458334,0 0,4.804687 0.807291,0 0,-4.804687 1.458334,0 0,-0.755209 -3.723959,0 z m 4.388021,0 1.588542,3.28125 0,2.278646 0.807292,0 0,-2.278646 1.575516,-3.28125 -0.872396,0 -1.106766,2.447917 -1.106771,-2.447917 -0.885417,0 z m 17.044267,0 0,5.559896 3.359375,0 0,-0.755208 -2.552083,0 0,-4.804688 -0.807292,0 z m 4.557292,0 0,5.559896 3.359375,0 0,-0.755208 -2.552084,0 0,-4.804688 -0.807291,0 z m 4.479166,0 0,5.559896 3.385417,0 0,-0.755208 -2.578125,0 0,-1.666667 2.200521,0 0,-0.755208 -2.200521,0 0,-1.627604 2.578125,0 0,-0.755209 -3.385417,0 z m 9.934896,0 0,5.559896 3.385417,0 0,-0.755208 -2.578125,0 0,-1.666667 2.200521,0 0,-0.755208 -2.200521,0 0,-1.627604 2.578125,0 0,-0.755209 -3.385417,0 z m -22.330729,0.716209 c 0.3125,0 0.595313,0.127604 0.78125,0.338541 0.260417,0.296355 0.3125,0.615105 0.3125,1.731771 0,1.117188 -0.05208,1.422396 -0.3125,1.71875 -0.185937,0.210938 -0.46875,0.351563 -0.78125,0.351563 -0.311979,0 -0.609375,-0.140625 -0.794271,-0.351563 -0.260417,-0.296354 -0.3125,-0.601562 -0.3125,-1.71875 0,-1.116666 0.05208,-1.435416 0.3125,-1.731771 0.184896,-0.210937 0.482292,-0.338541 0.794271,-0.338541 z m -28.932289,0.03904 1.184896,0 c 0.535417,0 0.898437,0.338542 0.898437,0.885417 0,0.546354 -0.36302,0.859375 -0.898437,0.859375 l -1.184896,0 0,-1.744792 z m -22.03125,9.257813 c -0.565104,0 -1.028646,0.203646 -1.393229,0.585938 -0.520834,0.546875 -0.507813,1.169791 -0.507813,2.239583 0,1.070312 -0.013,1.680208 0.507813,2.226562 0.364583,0.382813 0.828125,0.598959 1.393229,0.598959 0.565625,0 1.042187,-0.216146 1.40625,-0.598959 0.520833,-0.546354 0.507812,-1.15625 0.507812,-2.226562 0,-1.069792 0.013,-1.692708 -0.507812,-2.239583 -0.364063,-0.382292 -0.840625,-0.585938 -1.40625,-0.585938 z m 43.736976,0 c -1.102083,0 -1.770833,0.659375 -1.770833,1.627604 0,0.453646 0.130208,0.809896 0.390625,1.067709 0.23125,0.226562 0.570313,0.380729 1.002604,0.442708 l 0.625,0.09115 c 0.3125,0.04635 0.439584,0.101041 0.572917,0.234375 0.141146,0.132812 0.208333,0.330729 0.208333,0.572916 0,0.539063 -0.402083,0.859375 -1.09375,0.859375 -0.543229,0 -0.954687,-0.127083 -1.341146,-0.533854 l -0.546875,0.559896 c 0.50573,0.539063 1.079688,0.729167 1.875,0.729167 1.108855,0 1.914063,-0.604167 1.914063,-1.627604 0,-0.476563 -0.152604,-0.880209 -0.442708,-1.145834 -0.222917,-0.210937 -0.486459,-0.339062 -0.976563,-0.416666 l -0.611979,-0.09112 c -0.244792,-0.03904 -0.464583,-0.135417 -0.598958,-0.260417 -0.141667,-0.132813 -0.195313,-0.305208 -0.195313,-0.507813 0,-0.492187 0.3375,-0.872395 0.963542,-0.872395 0.445312,0 0.831771,0.101041 1.158854,0.429687 l 0.507812,-0.533854 c -0.453645,-0.444792 -0.942187,-0.625 -1.640625,-0.625 z m 4.726563,0 c -0.550521,0 -1.016146,0.203646 -1.380208,0.585938 -0.520834,0.546875 -0.520834,1.169791 -0.520834,2.239583 0,1.070312 0,1.680208 0.520834,2.226562 0.364062,0.382813 0.829687,0.598959 1.380208,0.598959 0.960417,0 1.721875,-0.596354 1.901042,-1.705729 l -0.820313,0 c -0.127083,0.5625 -0.492708,0.95052 -1.080729,0.95052 -0.3125,0 -0.595313,-0.127083 -0.78125,-0.338541 -0.260417,-0.296875 -0.3125,-0.614584 -0.3125,-1.731771 0,-1.116667 0.05208,-1.434375 0.3125,-1.731771 0.185937,-0.210417 0.46875,-0.338542 0.78125,-0.338542 0.588021,0 0.954167,0.388021 1.080729,0.950521 l 0.820313,0 c -0.186459,-1.109375 -0.926563,-1.705729 -1.901042,-1.705729 z m 17.421875,0 c -0.550521,0 -1.028125,0.203646 -1.393229,0.585938 -0.520833,0.546875 -0.520833,1.169791 -0.520833,2.239583 0,1.070312 0,1.680208 0.520833,2.226562 0.365104,0.382813 0.842708,0.598959 1.393229,0.598959 0.959375,0 1.709896,-0.596354 1.888021,-1.705729 l -0.820313,0 c -0.126041,0.5625 -0.480729,0.95052 -1.067708,0.95052 -0.3125,0 -0.595312,-0.127083 -0.78125,-0.338541 -0.260417,-0.296875 -0.325521,-0.614584 -0.325521,-1.731771 0,-1.116667 0.0651,-1.434375 0.325521,-1.731771 0.185938,-0.210417 0.46875,-0.338542 0.78125,-0.338542 0.586979,0 0.940625,0.388021 1.067708,0.950521 l 0.820313,0 c -0.185938,-1.109375 -0.913542,-1.705729 -1.888021,-1.705729 z m 9.179688,0 c -1.102084,0 -1.770834,0.659375 -1.770834,1.627604 0,0.453646 0.130209,0.809896 0.390625,1.067709 0.23125,0.226562 0.570313,0.380729 1.002605,0.442708 l 0.625,0.09115 c 0.3125,0.04635 0.452604,0.101041 0.585937,0.234375 0.141146,0.132812 0.208333,0.330729 0.208333,0.572916 0,0.539063 -0.402083,0.859375 -1.09375,0.859375 -0.543229,0 -0.967708,-0.127083 -1.354166,-0.533854 l -0.533854,0.559896 c 0.505729,0.539063 1.079687,0.729167 1.875,0.729167 1.108854,0 1.901041,-0.604167 1.901041,-1.627604 0,-0.476563 -0.139583,-0.880209 -0.429687,-1.145834 -0.222917,-0.210937 -0.499479,-0.339062 -0.989584,-0.416666 l -0.611979,-0.09112 c -0.244791,-0.03904 -0.451562,-0.135417 -0.585937,-0.260417 -0.141667,-0.132813 -0.208334,-0.305208 -0.208334,-0.507813 0,-0.492187 0.350521,-0.872395 0.976563,-0.872395 0.445312,0 0.81875,0.101041 1.145833,0.429687 l 0.520834,-0.533854 c -0.453646,-0.444792 -0.955209,-0.625 -1.653646,-0.625 z m -71.796873,0.03904 0,5.559896 0.794271,0 0,-2.34375 2.200521,0 0,-0.755209 -2.200521,0 0,-1.705729 2.591146,0 0,-0.755208 -3.385417,0 z m 7.265625,0 -1.940104,5.559896 0.846354,0 0.364583,-1.106771 2.096355,0 0.364583,1.106771 0.859375,0 -1.953125,-5.559896 -0.638021,0 z m 3.528646,0 0,5.559896 0.794271,0 0,-2.1875 1.210937,0 c 1.033854,0 1.692709,-0.710938 1.692709,-1.679688 0,-0.96875 -0.658855,-1.692708 -1.692709,-1.692708 l -2.005208,0 z m 4.830729,0 0,5.559896 0.794271,0 0,-2.1875 1.210938,0 c 1.033854,0 1.692708,-0.710938 1.692708,-1.679688 0,-0.96875 -0.658854,-1.692708 -1.692708,-1.692708 l -2.005209,0 z m 4.817709,0 0,5.559896 3.359375,0 0,-0.755209 -2.552084,0 0,-4.804687 -0.807291,0 z m 4.427083,0 0,5.559896 0.807292,0 0,-5.559896 -0.807292,0 z m 2.33073,0 0,5.559896 3.385417,0 0,-0.755209 -2.578125,0 0,-1.666666 2.200521,0 0,-0.755209 -2.200521,0 0,-1.627604 2.578125,0 0,-0.755208 -3.385417,0 z m 4.67448,0 0,5.559896 1.861979,0 c 0.55,0 1.032291,-0.169271 1.367187,-0.520834 0.573438,-0.601562 0.533854,-1.486979 0.533854,-2.291666 0,-0.804688 0.03958,-1.625 -0.533854,-2.226563 -0.334896,-0.351562 -0.817187,-0.520833 -1.367187,-0.520833 l -1.861979,0 z m 16.393225,0 0,5.559896 0.807291,0 0,-5.559896 -0.807291,0 z m 2.434896,0 0,5.559896 3.385416,0 0,-0.755209 -2.578125,0 0,-1.666666 2.200521,0 0,-0.755209 -2.200521,0 0,-1.627604 2.578125,0 0,-0.755208 -3.385416,0 z m 4.674479,0 0,5.559896 0.807291,0 0,-3.90625 2.447917,3.90625 0.729167,0 0,-5.559896 -0.794271,0 0,3.90625 -2.447917,-3.90625 -0.742187,0 z m 10.3125,0 0,5.559896 3.385417,0 0,-0.755209 -2.591146,0 0,-1.666666 2.200521,0 0,-0.755209 -2.200521,0 0,-1.627604 2.591146,0 0,-0.755208 -3.385417,0 z M 12.473974,87.26559 c 0.3125,0 0.608333,0.127604 0.794271,0.338541 0.260416,0.296354 0.3125,0.615104 0.3125,1.731771 0,1.117188 -0.05208,1.422396 -0.3125,1.71875 -0.185938,0.210938 -0.481771,0.351563 -0.794271,0.351563 -0.3125,0 -0.595313,-0.140625 -0.78125,-0.351563 -0.259896,-0.296354 -0.3125,-0.601562 -0.3125,-1.71875 0,-1.116667 0.0526,-1.435417 0.3125,-1.731771 0.185937,-0.210937 0.46875,-0.338541 0.78125,-0.338541 z m 14.856771,0.03904 1.171875,0 c 0.557812,0 0.9375,0.351563 0.9375,0.9375 0,0.585938 -0.379688,0.924479 -0.9375,0.924479 l -1.171875,0 0,-1.861979 z m 4.830729,0 1.158854,0 c 0.557813,0 0.9375,0.351563 0.9375,0.9375 0,0.585938 -0.379687,0.924479 -0.9375,0.924479 l -1.158854,0 0,-1.861979 z m 16.263022,0 0.976563,0 c 0.378646,0 0.675521,0.119792 0.898437,0.377604 0.275521,0.320313 0.273438,0.848959 0.273438,1.614584 0,0.765625 0.0021,1.359375 -0.273438,1.679687 -0.222916,0.257813 -0.519791,0.377604 -0.898437,0.377604 l -0.976563,0 0,-4.049479 z m -25.078126,0.507813 0.807291,2.460937 -1.627604,0 0.820313,-2.460937 z"
       id="logo_fg"
       style="fill:#ffffff;fill-opacity:1;fill-rule:nonzero;stroke:none" />
  </g>
</svg>
