<?xml version="1.0" encoding="UTF-8" standalone="no"?>
<!-- Created with Inkscape (http://www.inkscape.org/) -->

<svg
   xmlns:dc="http://purl.org/dc/elements/1.1/"
   xmlns:cc="http://creativecommons.org/ns#"
   xmlns:rdf="http://www.w3.org/1999/02/22-rdf-syntax-ns#"
   xmlns:svg="http://www.w3.org/2000/svg"
   xmlns="http://www.w3.org/2000/svg"
   version="1.1"
   width="240"
   height="240"
   id="logo_svgDoc"
   onload="svgloaded(evt)"   
   onclick="messageUser()">

<script id="interactivity" type="application/ecmascript">
      <![CDATA[
      
		// on svg load, set required variables;
		// FIXME: should not clobber the global scope!!
		var logo_svgDoc,
		    logo_bg,
            logo_fg;
		
		var logo_fg_color = "#000000";
        var logo_fg_highlight_color = "#ffffff";
        var logo_bg_color = "#ffffff";
		var logo_bg_highlight_color = "#000000";

		
		function svgloaded(evt) {
   		//alert("loaded!");
			var svgDoc = evt.target;
			logo_svgDoc = svgDoc;
			logo_bg = svgDoc.getElementById("logo_bg");
			logo_fg = svgDoc.getElementById("logo_fg");
		}
		
		function restoreState() {
		    logo_bg.style.fill = logo_bg_color;
            logo_fg.style.fill = logo_fg_color;
		}
		
		function highlightState() {
		    logo_bg.style.fill = logo_bg_highlight_color;
            logo_fg.style.fill = logo_fg_highlight_color;
		}

        function messageUser() {
            alert("isn't life wonderful?");
        }
		]]>
   </script>

<!-- different events can be acessed by adding these attributes to objects:
   onmouseenter="elementEnter(evt)"
   onclick="elementClick(evt)"
   onmouseout="elementLeave(evt)"
   onmousedown
   onmouseup
   onmousemove
   onfocusin
   onfocusout
   onactivate
   onload
   onmouseenter="highlightState(evt)"
   onmouseout="restoreState(evt)"
   onclick="scaleMag()"
   -->

  <defs
     id="defs7198">
    <clipPath
       id="clipPath7239">
      <path
         d="m 0,595.28 841.89,0 L 841.89,0 0,0 0,595.28 z"
         id="path7241" />
    </clipPath>
  </defs>
  <metadata
     id="metadata7201">
    <rdf:RDF>
      <cc:Work
         rdf:about="">
        <dc:format>image/svg+xml</dc:format>
        <dc:type
           rdf:resource="http://purl.org/dc/dcmitype/StillImage" />
        <dc:title></dc:title>
      </cc:Work>
    </rdf:RDF>
  </metadata>
  <g id="logo_group" onmousemove="highlightState()" onmouseout="restoreState()">
    <rect
       width="240"
       height="240"
       x="0"
       y="0"
       id="logo_bg"
       style="color:#000000;fill:#ffffff;fill-opacity:1;stroke:none;stroke-width:12.5;marker:none;visibility:visible;display:inline;overflow:visible;enable-background:accumulate" />
    <path
       d="m 102.25004,18.812525 c -0.3,0 -0.53125,0.23125 -0.53125,0.53125 l 0,0.21875 c 0,0.29875 0.23125,0.5625 0.53125,0.5625 l 35.43749,0 c 0.3,0 0.53125,-0.26375 0.53125,-0.5625 l 0,-0.21875 c 0,-0.3 -0.23125,-0.53125 -0.53125,-0.53125 l -35.43749,0 z m -27.281253,7.8125 c -0.35875,0 -0.625,0.29625 -0.625,0.65625 l 0,0.625 c 0,0.35875 0.26625,0.65625 0.625,0.65625 l 35.218753,0 c 0.35875,0 0.65625,-0.2975 0.65625,-0.65625 l 0,-0.625 c 0,-0.36 -0.2975,-0.65625 -0.65625,-0.65625 l -35.218753,0 z m 54.781243,0 c -0.35875,0 -0.65625,0.29625 -0.65625,0.65625 l 0,0.625 c 0,0.35875 0.2975,0.65625 0.65625,0.65625 l 35.1875,0 c 0.35875,0 0.65625,-0.2975 0.65625,-0.65625 l 0,-0.625 c 0,-0.36 -0.2975,-0.65625 -0.65625,-0.65625 l -35.1875,0 z m -26.81249,6.9375 c -0.68125,0 -1.25,0.56625 -1.25,1.25 l 0,2.15625 c 0,0.6825 0.56875,1.25 1.25,1.25 l 34.03124,0 c 0.68125,0 1.25,-0.5675 1.25,-1.25 l 0,-2.15625 c 0,-0.68375 -0.56875,-1.25 -1.25,-1.25 l -34.03124,0 z m -55.343753,1.375 c -0.36,0 -0.65625,0.265 -0.65625,0.625 l 0,0.625 c 0,0.36 0.29625,0.65625 0.65625,0.65625 l 35.21875,0 c 0.36,0 0.65625,-0.29625 0.65625,-0.65625 l 0,-0.625 c 0,-0.36 -0.29625,-0.625 -0.65625,-0.625 l -35.21875,0 z m 109.531243,0 c -0.35875,0 -0.65625,0.265 -0.65625,0.625 l 0,0.625 c 0,0.36 0.2975,0.65625 0.65625,0.65625 l 35.21875,0 c 0.35875,0 0.65625,-0.29625 0.65625,-0.65625 l 0,-0.625 c 0,-0.36 -0.2975,-0.625 -0.65625,-0.625 l -35.21875,0 z m -81.562493,6.5 c -0.68375,0 -1.25,0.5675 -1.25,1.25 l 0,2.65625 c 0,0.6825 0.56625,1.25 1.25,1.25 l 34.031253,0 c 0.68375,0 1.21875,-0.5675 1.21875,-1.25 l 0,-2.65625 c 0,-0.6825 -0.535,-1.25 -1.21875,-1.25 l -34.031253,0 z m 54.749993,0 c -0.68375,0 -1.21875,0.5675 -1.21875,1.25 l 0,2.65625 c 0,0.6825 0.535,1.25 1.21875,1.25 l 34.0625,0 c 0.68125,0 1.21875,-0.5675 1.21875,-1.25 l 0,-2.65625 c 0,-0.6825 -0.5375,-1.25 -1.21875,-1.25 l -34.0625,0 z m -103.937493,1.78125 c -0.36,0 -0.65625,0.29625 -0.65625,0.65625 l 0,0.28125 c 0,0.35875 0.29625,0.65625 0.65625,0.65625 l 29.03125,0 c 0.36,0 0.65625,-0.2975 0.65625,-0.65625 l 0,-0.28125 c 0,-0.36 -0.29625,-0.65625 -0.65625,-0.65625 l -29.03125,0 z m 158.156243,0 c -0.35875,0 -0.65625,0.29625 -0.65625,0.65625 l 0,0.28125 c 0,0.35875 0.2975,0.65625 0.65625,0.65625 l 29.03125,0 c 0.35875,0 0.65625,-0.2975 0.65625,-0.65625 l 0,-0.28125 c 0,-0.36 -0.2975,-0.65625 -0.65625,-0.65625 l -29.03125,0 z m -81.59374,5.8125 c -0.68125,0 -1.25,0.56875 -1.25,1.25 l 0,3.71875 c 0,0.6825 0.56875,1.21875 1.25,1.21875 l 34.03124,0 c 0.68125,0 1.25,-0.53625 1.25,-1.21875 l 0,-3.71875 c 0,-0.68125 -0.56875,-1.25 -1.25,-1.25 l -34.03124,0 z m -54.781253,1.25 c -0.68125,0 -1.21875,0.53625 -1.21875,1.21875 l 0,1.25 c 0,0.6825 0.5375,1.25 1.21875,1.25 l 34.0625,0 c 0.6825,0 1.21875,-0.5675 1.21875,-1.25 l 0,-1.25 c 0,-0.6825 -0.53625,-1.21875 -1.21875,-1.21875 l -34.0625,0 z m 109.562493,0 c -0.68375,0 -1.25,0.53625 -1.25,1.21875 l 0,1.25 c 0,0.6825 0.56625,1.25 1.25,1.25 l 34.03125,0 c 0.68125,0 1.21875,-0.5675 1.21875,-1.25 l 0,-1.25 c 0,-0.6825 -0.5375,-1.21875 -1.21875,-1.21875 l -34.03125,0 z m -82.156243,7.1875 c -0.68375,0 -1.25,0.56875 -1.25,1.25 l 0,3.09375 c 0,0.6825 0.56625,1.21875 1.25,1.21875 l 34.031253,0 c 0.68375,0 1.21875,-0.53625 1.21875,-1.21875 l 0,-3.09375 c 0,-0.68125 -0.535,-1.25 -1.21875,-1.25 l -34.031253,0 z m 54.749993,0 c -0.68375,0 -1.21875,0.56875 -1.21875,1.25 l 0,3.09375 c 0,0.6825 0.535,1.21875 1.21875,1.21875 l 34.0625,0 c 0.68125,0 1.21875,-0.53625 1.21875,-1.21875 l 0,-3.09375 c 0,-0.68125 -0.5375,-1.25 -1.21875,-1.25 l -34.0625,0 z m -103.937493,1.53125 c -0.3525,0 -0.65625,0.30625 -0.65625,0.65625 l 0,1.1875 c 0,0.35125 0.30375,0.625 0.65625,0.625 l 29.03125,0 c 0.35125,0 0.65625,-0.27375 0.65625,-0.625 l 0,-1.1875 c 0,-0.35 -0.305,-0.65625 -0.65625,-0.65625 l -29.03125,0 z m 158.124993,0 c -0.35125,0 -0.625,0.30625 -0.625,0.65625 l 0,1.1875 c 0,0.35125 0.27375,0.625 0.625,0.625 l 29.0625,0 c 0.35,0 0.625,-0.27375 0.625,-0.625 l 0,-1.1875 c 0,-0.35 -0.275,-0.65625 -0.625,-0.65625 l -29.0625,0 z m -136.593743,6.90625 c -0.56309,0.116536 -0.96875,0.620469 -0.96875,1.21875 l 0,2.5 c 0,0.6825 0.5375,1.21875 1.21875,1.21875 l 34.0625,0 c 0.6825,0 1.21875,-0.53625 1.21875,-1.21875 l 0,-2.5 c 0,-0.68375 -0.53625,-1.21875 -1.21875,-1.21875 l -34.0625,0 c -0.0851,0 -0.16956,-0.01665 -0.25,0 z m 54.781253,0 c -0.56333,0.116536 -1,0.620469 -1,1.21875 l 0,2.5 c 0,0.6825 0.56875,1.21875 1.25,1.21875 l 34.03124,0 c 0.68125,0 1.25,-0.53625 1.25,-1.21875 l 0,-2.5 c 0,-0.68375 -0.56875,-1.21875 -1.25,-1.21875 l -34.03124,0 c -0.0851,0 -0.16952,-0.01665 -0.25,0 z m 54.78124,0 c -0.56453,0.116536 -1,0.620469 -1,1.21875 l 0,2.5 c 0,0.6825 0.56625,1.21875 1.25,1.21875 l 34.03125,0 c 0.68125,0 1.21875,-0.53625 1.21875,-1.21875 l 0,-2.5 c 0,-0.68375 -0.5375,-1.21875 -1.21875,-1.21875 l -34.03125,0 c -0.0855,0 -0.16935,-0.01665 -0.25,0 z m -81.906243,8.09375 c -0.68375,0 -1.25,0.5675 -1.25,1.25 l 0,2.46875 c 0,0.6825 0.56625,1.25 1.25,1.25 l 34.031253,0 c 0.68375,0 1.21875,-0.5675 1.21875,-1.25 l 0,-2.46875 c 0,-0.6825 -0.535,-1.25 -1.21875,-1.25 l -34.031253,0 z m 54.749993,0 c -0.68375,0 -1.21875,0.5675 -1.21875,1.25 l 0,2.46875 c 0,0.6825 0.535,1.25 1.21875,1.25 l 34.0625,0 c 0.68125,0 1.21875,-0.5675 1.21875,-1.25 l 0,-2.46875 c 0,-0.6825 -0.5375,-1.25 -1.21875,-1.25 l -34.0625,0 z m -103.343743,1.09375 c -0.6825,0 -1.25,0.56875 -1.25,1.25 l 0,0.3125 c 0,0.6825 0.5675,1.21875 1.25,1.21875 l 27.84375,0 c 0.68375,0 1.25,-0.53625 1.25,-1.21875 l 0,-0.3125 c 0,-0.68125 -0.56625,-1.25 -1.25,-1.25 l -27.84375,0 z m 158.156243,0 c -0.68125,0 -1.25,0.56875 -1.25,1.25 l 0,0.3125 c 0,0.6825 0.56875,1.21875 1.25,1.21875 l 27.84375,0 c 0.68375,0 1.25,-0.53625 1.25,-1.21875 l 0,-0.3125 c 0,-0.68125 -0.56625,-1.25 -1.25,-1.25 l -27.84375,0 z m -136.968743,7.1875 c -0.68125,0 -1.21875,0.56625 -1.21875,1.25 l 0,2.15625 c 0,0.6825 0.5375,1.25 1.21875,1.25 l 34.0625,0 c 0.6825,0 1.21875,-0.5675 1.21875,-1.25 l 0,-2.15625 c 0,-0.68375 -0.53625,-1.25 -1.21875,-1.25 l -34.0625,0 z m 109.562493,0 c -0.68375,0 -1.25,0.56625 -1.25,1.25 l 0,2.15625 c 0,0.6825 0.56625,1.25 1.25,1.25 l 34.03125,0 c 0.68125,0 1.21875,-0.5675 1.21875,-1.25 l 0,-2.15625 c 0,-0.68375 -0.5375,-1.25 -1.21875,-1.25 l -34.03125,0 z m -54.78124,0.46875 c -0.68125,0 -1.25,0.5675 -1.25,1.25 l 0,1.21875 c 0,0.68125 0.56875,1.25 1.25,1.25 l 34.03124,0 c 0.68125,0 1.25,-0.56875 1.25,-1.25 l 0,-1.21875 c 0,-0.6825 -0.56875,-1.25 -1.25,-1.25 l -34.03124,0 z m -75.968753,8.28125 c -0.6825,0 -1.25,0.56625 -1.25,1.25 l 0,0.9375 c 0,0.68125 0.5675,1.21875 1.25,1.21875 l 27.84375,0 c 0.68375,0 1.25,-0.5375 1.25,-1.21875 l 0,-0.9375 c 0,-0.68375 -0.56625,-1.25 -1.25,-1.25 l -27.84375,0 z m 48.59375,0 c -0.68375,0 -1.25,0.56625 -1.25,1.25 l 0,0.9375 c 0,0.68125 0.56625,1.21875 1.25,1.21875 l 34.031253,0 c 0.68375,0 1.21875,-0.5375 1.21875,-1.21875 l 0,-0.9375 c 0,-0.68375 -0.535,-1.25 -1.21875,-1.25 l -34.031253,0 z m 54.749993,0 c -0.68375,0 -1.21875,0.56625 -1.21875,1.25 l 0,0.9375 c 0,0.68125 0.535,1.21875 1.21875,1.21875 l 34.0625,0 c 0.68125,0 1.21875,-0.5375 1.21875,-1.21875 l 0,-0.9375 c 0,-0.68375 -0.5375,-1.25 -1.21875,-1.25 l -34.0625,0 z m 54.8125,0 c -0.68125,0 -1.25,0.56625 -1.25,1.25 l 0,0.9375 c 0,0.68125 0.56875,1.21875 1.25,1.21875 l 27.84375,0 c 0.68375,0 1.25,-0.5375 1.25,-1.21875 l 0,-0.9375 c 0,-0.68375 -0.56625,-1.25 -1.25,-1.25 l -27.84375,0 z m -136.968743,8.125 c -0.68125,0 -1.21875,0.5675 -1.21875,1.250005 l 0,0.90625 c 0,0.6825 0.5375,1.25 1.21875,1.25 l 34.0625,0 c 0.6825,0 1.21875,-0.5675 1.21875,-1.25 l 0,-0.90625 c 0,-0.682505 -0.53625,-1.250005 -1.21875,-1.250005 l -34.0625,0 z m 109.562493,0 c -0.68375,0 -1.25,0.5675 -1.25,1.250005 l 0,0.90625 c 0,0.6825 0.56625,1.25 1.25,1.25 l 34.03125,0 c 0.68125,0 1.21875,-0.5675 1.21875,-1.25 l 0,-0.90625 c 0,-0.682505 -0.5375,-1.250005 -1.21875,-1.250005 l -34.03125,0 z m -55.37499,0.5625 c -0.36,0 -0.625,0.296255 -0.625,0.656255 l 0,0.96875 c 0,0.35875 0.265,0.65625 0.625,0.65625 l 35.21874,0 c 0.35875,0 0.65625,-0.2975 0.65625,-0.65625 l 0,-0.96875 c 0,-0.36 -0.2975,-0.656255 -0.65625,-0.656255 l -35.21874,0 z m -75.375003,7.562505 c -0.6825,0 -1.25,0.5675 -1.25,1.25 l 0,0.90625 c 0,0.68375 0.5675,1.25 1.25,1.25 l 27.84375,0 c 0.68375,0 1.25,-0.56625 1.25,-1.25 l 0,-0.90625 c 0,-0.6825 -0.56625,-1.25 -1.25,-1.25 l -27.84375,0 z m 158.156243,0 c -0.68125,0 -1.25,0.5675 -1.25,1.25 l 0,0.90625 c 0,0.68375 0.56875,1.25 1.25,1.25 l 27.84375,0 c 0.68375,0 1.25,-0.56625 1.25,-1.25 l 0,-0.90625 c 0,-0.6825 -0.56625,-1.25 -1.25,-1.25 l -27.84375,0 z m -110.156243,0.71875 c -0.35875,0 -0.625,0.29625 -0.625,0.65625 l 0,0.625 c 0,0.36 0.26625,0.65625 0.625,0.65625 l 35.218753,0 c 0.35875,0 0.65625,-0.29625 0.65625,-0.65625 l 0,-0.625 c 0,-0.36 -0.2975,-0.65625 -0.65625,-0.65625 l -35.218753,0 z m 54.781243,0 c -0.35875,0 -0.65625,0.29625 -0.65625,0.65625 l 0,0.625 c 0,0.36 0.2975,0.65625 0.65625,0.65625 l 35.1875,0 c 0.35875,0 0.65625,-0.29625 0.65625,-0.65625 l 0,-0.625 c 0,-0.36 -0.2975,-0.65625 -0.65625,-0.65625 l -35.1875,0 z m -82.156243,8.125 c -0.36,0 -0.65625,0.29625 -0.65625,0.65625 l 0,0.625 c 0,0.35875 0.29625,0.65625 0.65625,0.65625 l 35.21875,0 c 0.36,0 0.65625,-0.2975 0.65625,-0.65625 l 0,-0.625 c 0,-0.36 -0.29625,-0.65625 -0.65625,-0.65625 l -35.21875,0 z m 109.531243,0 c -0.35875,0 -0.65625,0.29625 -0.65625,0.65625 l 0,0.625 c 0,0.35875 0.2975,0.65625 0.65625,0.65625 l 35.21875,0 c 0.35875,0 0.65625,-0.2975 0.65625,-0.65625 l 0,-0.625 c 0,-0.36 -0.2975,-0.65625 -0.65625,-0.65625 l -35.21875,0 z m -130.749993,7.96875 c -0.35875,0 -0.65625,0.2975 -0.65625,0.65625 l 0,0.9375 c 0,0.35875 0.2975,0.65625 0.65625,0.65625 l 29.03125,0 c 0.35875,0 0.65625,-0.2975 0.65625,-0.65625 l 0,-0.9375 c 0,-0.35875 -0.2975,-0.65625 -0.65625,-0.65625 l -29.03125,0 z m 158.156243,0 c -0.35875,0 -0.65625,0.2975 -0.65625,0.65625 l 0,0.9375 c 0,0.35875 0.2975,0.65625 0.65625,0.65625 l 29.03125,0 c 0.35875,0 0.65625,-0.2975 0.65625,-0.65625 l 0,-0.9375 c 0,-0.35875 -0.2975,-0.65625 -0.65625,-0.65625 l -29.03125,0 z m -158.812493,18.71875 0,1.78125 188.468743,0 0,-1.78125 -188.468743,0 z m 4.21875,16.5625 c -1.35625,0 -2.46875,0.48625 -3.34375,1.40625 -1.25,1.31125 -1.21875,2.8075 -1.21875,5.375 0,2.56875 -0.0312,4.0325 1.21875,5.34375 0.875,0.91875 1.9875,1.4375 3.34375,1.4375 1.3575,0 2.50125,-0.51875 3.375,-1.4375 1.25,-1.31125 1.21875,-2.775 1.21875,-5.34375 0,-2.5675 0.0312,-4.06375 -1.21875,-5.375 -0.87375,-0.92 -2.0175,-1.40625 -3.375,-1.40625 z m 11.875,0 c -2.6425,0 -4.25,1.5825 -4.25,3.90625 0,1.08875 0.2825,1.94375 0.90625,2.5625 0.55375,0.54375 1.40125,0.91375 2.4375,1.0625 l 1.5,0.21875 c 0.75,0.11125 1.0525,0.2425 1.375,0.5625 0.33875,0.31875 0.5,0.79375 0.5,1.375 0,1.29375 -0.965,2.0625 -2.625,2.0625 -1.30375,0 -2.3225,-0.305 -3.25,-1.28125 l -1.28125,1.34375 c 1.21375,1.29375 2.59,1.75 4.5,1.75 2.66,0 4.5625,-1.45 4.5625,-3.90625 0,-1.14375 -0.335,-2.1125 -1.03125,-2.75 -0.53625,-0.50625 -1.1975,-0.81375 -2.375,-1 l -1.4375,-0.21875 c -0.58875,-0.0937 -1.11625,-0.325 -1.4375,-0.625 -0.33875,-0.31875 -0.46875,-0.73125 -0.46875,-1.21875 0,-1.18 0.8125,-2.09375 2.3125,-2.09375 1.07125,0 1.99625,0.245 2.78125,1.03125 l 1.21875,-1.28125 c -1.08875,-1.06875 -2.26,-1.5 -3.9375,-1.5 z m 22.65625,0 c -1.35625,0 -2.46875,0.48625 -3.34375,1.40625 -1.24875,1.31125 -1.21875,2.8075 -1.21875,5.375 0,2.56875 -0.03,4.0325 1.21875,5.34375 0.875,0.91875 1.9875,1.4375 3.34375,1.4375 1.3575,0 2.46875,-0.51875 3.34375,-1.4375 1.25,-1.31125 1.21875,-2.775 1.21875,-5.34375 0,-2.5675 0.0312,-4.06375 -1.21875,-5.375 -0.875,-0.92 -1.98625,-1.40625 -3.34375,-1.40625 z m 108.593743,0 c -2.645,0 -4.25,1.5825 -4.25,3.90625 0,1.08875 0.28125,1.94375 0.90625,2.5625 0.555,0.54375 1.4,0.91375 2.4375,1.0625 l 1.46875,0.21875 c 0.75,0.11125 1.08625,0.2425 1.40625,0.5625 0.33875,0.31875 0.5,0.79375 0.5,1.375 0,1.29375 -0.965,2.0625 -2.625,2.0625 -1.30375,0 -2.3225,-0.305 -3.25,-1.28125 l -1.28125,1.34375 c 1.21375,1.29375 2.59125,1.75 4.5,1.75 2.66125,0 4.5625,-1.45 4.5625,-3.90625 0,-1.14375 -0.335,-2.1125 -1.03125,-2.75 -0.535,-0.50625 -1.19875,-0.81375 -2.375,-1 l -1.4375,-0.21875 c -0.5875,-0.0937 -1.115,-0.325 -1.4375,-0.625 -0.34,-0.31875 -0.46875,-0.73125 -0.46875,-1.21875 0,-1.18 0.81,-2.09375 2.3125,-2.09375 1.06875,0 1.965,0.245 2.75,1.03125 l 1.25,-1.28125 c -1.08875,-1.06875 -2.26125,-1.5 -3.9375,-1.5 z m 37.15625,0 c -2.6425,0 -4.25,1.5825 -4.25,3.90625 0,1.08875 0.3125,1.94375 0.9375,2.5625 0.555,0.54375 1.37125,0.91375 2.40625,1.0625 l 1.5,0.21875 c 0.75,0.11125 1.08375,0.2425 1.40625,0.5625 0.33875,0.31875 0.5,0.79375 0.5,1.375 0,1.29375 -0.965,2.0625 -2.625,2.0625 -1.30375,0 -2.3225,-0.305 -3.25,-1.28125 l -1.28125,1.34375 c 1.21375,1.29375 2.58875,1.75 4.5,1.75 2.65875,0 4.5625,-1.45 4.5625,-3.90625 0,-1.14375 -0.335,-2.1125 -1.03125,-2.75 -0.5375,-0.50625 -1.19625,-0.81375 -2.375,-1 l -1.46875,-0.21875 c -0.5875,-0.0937 -1.08375,-0.325 -1.40625,-0.625 -0.34,-0.31875 -0.5,-0.73125 -0.5,-1.21875 0,-1.18 0.84375,-2.09375 2.34375,-2.09375 1.07125,0 1.965,0.245 2.75,1.03125 l 1.25,-1.28125 c -1.08875,-1.06875 -2.2925,-1.5 -3.96875,-1.5 z m -160.499993,0.0937 0,13.34375 8.03125,0 0,-1.8125 -6.09375,0 0,-11.53125 -1.9375,0 z m 31,0 -4.65625,13.34375 2.0625,0 0.875,-2.65625 5.03125,0 0.875,2.65625 2.03125,0 -4.65625,-13.34375 -1.5625,0 z m 8.8125,0 0,13.34375 1.9375,0 0,-9.375 5.875,9.375 1.75,0 0,-13.34375 -1.90625,0 0,9.375 -5.875,-9.375 -1.78125,0 z m 13.750003,0 0,13.34375 4.4375,0 c 1.32,0 2.4775,-0.40625 3.28125,-1.25 1.37375,-1.44375 1.3125,-3.56875 1.3125,-5.5 0,-1.93125 0.0613,-3.9 -1.3125,-5.34375 -0.80375,-0.84375 -1.96125,-1.25 -3.28125,-1.25 l -4.4375,0 z m 20.625,0 -4.65625,13.34375 2.0625,0 0.875,-2.65625 4.99999,0 0.875,2.65625 2.0625,0 -4.65625,-13.34375 -1.56249,0 z m 8.78124,0 0,13.34375 1.90625,0 0,-3.875 2.15625,-2.6875 3.5625,6.5625 2.28125,0 -4.5625,-8.09375 4.125,-5.25 -2.34375,0 -5.21875,6.71875 0,-6.71875 -1.90625,0 z m 12.53125,0 0,13.34375 8.125,0 0,-1.8125 -6.1875,0 0,-4 5.28125,0 0,-1.8125 -5.28125,0 0,-3.90625 6.1875,0 0,-1.8125 -8.125,0 z m 11.59375,0 0,13.34375 1.9375,0 0,-5.625 2.40625,0 2.6875,5.625 2.25,0 -2.9375,-5.90625 c 1.42875,-0.4125 2.53125,-1.61875 2.53125,-3.53125 0,-2.26875 -1.5275,-3.90625 -3.9375,-3.90625 l -4.9375,0 z m 23.875,0 0,13.34375 1.9375,0 0,-5.8125 5.15625,0 0,5.8125 1.9375,0 0,-13.34375 -1.9375,0 0,5.71875 -5.15625,0 0,-5.71875 -1.9375,0 z m 13,0 0,8.84375 c 0,2.75625 1.94125,4.625 4.53125,4.625 2.5875,0 4.59375,-1.86875 4.59375,-4.625 l 0,-8.84375 -1.9375,0 0,8.75 c 0,1.78125 -1.06875,2.90625 -2.65625,2.90625 -1.58875,0 -2.625,-1.125 -2.625,-2.90625 l 0,-8.75 -1.90625,0 z m -163.749993,1.71875 c 0.75,0 1.46,0.30625 1.90625,0.8125 0.625,0.7125 0.75,1.47625 0.75,4.15625 0,2.68125 -0.125,3.41375 -0.75,4.125 -0.44625,0.50625 -1.15625,0.84375 -1.90625,0.84375 -0.75,0 -1.42875,-0.3375 -1.875,-0.84375 -0.62375,-0.71125 -0.75,-1.44375 -0.75,-4.125 0,-2.68 0.12625,-3.44375 0.75,-4.15625 0.44625,-0.50625 1.125,-0.8125 1.875,-0.8125 z m 34.53125,0 c 0.75,0 1.42875,0.30625 1.875,0.8125 0.625,0.7125 0.75,1.47625 0.75,4.15625 0,2.68125 -0.125,3.41375 -0.75,4.125 -0.44625,0.50625 -1.125,0.84375 -1.875,0.84375 -0.75,0 -1.45875,-0.3375 -1.90625,-0.84375 -0.625,-0.71125 -0.75,-1.44375 -0.75,-4.125 0,-2.68 0.125,-3.44375 0.75,-4.15625 0.4475,-0.50625 1.15625,-0.8125 1.90625,-0.8125 z m 40.718753,0.0937 2.34375,0 c 0.91125,0 1.62,0.2875 2.15625,0.90625 0.66,0.76875 0.6875,2.0375 0.6875,3.875 0,1.8375 -0.0275,3.2625 -0.6875,4.03125 -0.53625,0.61875 -1.245,0.90625 -2.15625,0.90625 l -2.34375,0 0,-9.71875 z m 53.56249,0 2.84375,0 c 1.28625,0 2.15625,0.8125 2.15625,2.125 0,1.3125 -0.87,2.0625 -2.15625,2.0625 l -2.84375,0 0,-4.1875 z m -77.187493,1.21875 1.90625,5.90625 -3.90625,0 2,-5.90625 z m 43.156253,0 1.93749,5.90625 -3.90624,0 1.96875,-5.90625 z m -28.093753,21 c -2.6425,0 -4.25,1.5825 -4.25,3.90625 0,1.08875 0.31375,1.94375 0.9375,2.5625 0.55375,0.54375 1.37,0.91375 2.40625,1.0625 l 1.5,0.21875 c 0.75,0.11125 1.0525,0.2425 1.375,0.5625 0.33875,0.31875 0.5,0.79375 0.5,1.375 0,1.29375 -0.965,2.0625 -2.625,2.0625 -1.30375,0 -2.3225,-0.305 -3.25,-1.28125 l -1.28125,1.34375 c 1.21375,1.29375 2.59,1.75 4.5,1.75 2.66,0 4.562503,-1.45 4.562503,-3.90625 0,-1.14375 -0.335,-2.1125 -1.031253,-2.75 -0.53625,-0.50625 -1.1975,-0.81375 -2.375,-1 l -1.4375,-0.21875 c -0.58875,-0.0937 -1.11625,-0.325 -1.4375,-0.625 -0.33875,-0.31875 -0.46875,-0.7325 -0.46875,-1.21875 0,-1.18125 0.8125,-2.09375 2.3125,-2.09375 1.07125,0 1.99625,0.2425 2.78125,1.03125 l 1.218753,-1.28125 c -1.088753,-1.0675 -2.260003,-1.5 -3.937503,-1.5 z m 43.812493,0 c -1.32125,0 -2.4675,0.48875 -3.34375,1.40625 -1.25,1.3125 -1.21875,2.8075 -1.21875,5.375 0,2.56875 -0.0312,4.0325 1.21875,5.34375 0.87625,0.91875 2.0225,1.4375 3.34375,1.4375 2.3025,0 4.10375,-1.43125 4.53125,-4.09375 l -1.9375,0 c -0.3025,1.35 -1.185,2.28125 -2.59375,2.28125 -0.75,0 -1.42875,-0.305 -1.875,-0.8125 -0.625,-0.7125 -0.75,-1.475 -0.75,-4.15625 0,-2.68 0.125,-3.4425 0.75,-4.15625 0.44625,-0.505 1.125,-0.8125 1.875,-0.8125 1.40875,0 2.2575,0.93125 2.5625,2.28125 l 1.96875,0 c -0.44625,-2.6625 -2.1925,-4.09375 -4.53125,-4.09375 z m 11.8125,0 c -1.3575,0 -2.46625,0.48875 -3.34375,1.40625 -1.25,1.3125 -1.21875,2.8075 -1.21875,5.375 0,2.56875 -0.0312,4.0325 1.21875,5.34375 0.8775,0.91875 1.98625,1.4375 3.34375,1.4375 1.355,0 2.47,-0.51875 3.34375,-1.4375 1.24995,-1.31125 1.21875,-2.775 1.21875,-5.34375 0,-2.5675 0.0312,-4.0625 -1.21875,-5.375 -0.87375,-0.9175 -1.98875,-1.40625 -3.34375,-1.40625 z m 45.375,0 c -1.3575,0 -2.43875,0.48875 -3.3125,1.40625 -1.25,1.3125 -1.25,2.80625 -1.25,5.375 0,2.56875 0,4.03125 1.25,5.34375 0.87375,0.91875 1.9925,1.4375 3.3125,1.4375 1.34,0 2.5375,-0.4625 3.5,-1.53125 0.84,-0.9375 1.15625,-2.025 1.15625,-3.75 l 0,-2.0625 -4.65625,0 0,1.75 2.71875,0 0,0.75 c 0,0.86375 -0.15875,1.5325 -0.625,2.09375 -0.4975,0.6 -1.25375,0.9375 -2.09375,0.9375 -0.74875,0 -1.4275,-0.305 -1.875,-0.8125 -0.625,-0.7125 -0.75,-1.475 -0.75,-4.15625 0,-2.68 0.125,-3.445 0.75,-4.15625 0.4475,-0.5075 1.12625,-0.8125 1.875,-0.8125 1.42875,0 2.365,0.85 2.6875,2.3125 l 1.9375,0 c -0.35625,-2.28625 -1.93,-4.125 -4.625,-4.125 z m -171.968743,0.0937 0,8.84375 c 0,2.75625 1.9425,4.625 4.53125,4.625 2.58875,0 4.5625,-1.86875 4.5625,-4.625 l 0,-8.84375 -1.90625,0 0,8.75 c 0,1.78125 -1.0675,2.90625 -2.65625,2.90625 -1.58875,0 -2.625,-1.125 -2.625,-2.90625 l 0,-8.75 -1.90625,0 z m 12.9375,0 0,13.34375 1.9375,0 0,-9.375 5.875,9.375 1.78125,0 0,-13.34375 -1.9375,0 0,9.375 -5.875,-9.375 -1.78125,0 z m 13.59375,0 0,13.34375 1.90625,0 0,-13.34375 -1.90625,0 z m 4.71875,0 4.15625,13.34375 1.5,0 4.21875,-13.34375 -2.03125,0 -2.9375,9.71875 -2.90625,-9.71875 -2,0 z m 12.5,0 0,13.34375 8.125,0 0,-1.8125 -6.21875,0 0,-4 5.28125,0 0,-1.8125 -5.28125,0 0,-3.90625 6.21875,0 0,-1.8125 -8.125,0 z m 11.46875,0 0,13.34375 1.9375,0 0,-5.625 2.40625,0 2.65625,5.625 2.25,0 -2.90625,-5.90625 c 1.4275,-0.4125 2.53125,-1.61875 2.53125,-3.53125 0,-2.26875 -1.5275,-3.90625 -3.9375,-3.90625 l -4.9375,0 z m 23.375003,0 0,13.34375 1.9375,0 0,-13.34375 -1.9375,0 z m 4.625,0 0,1.8125 3.5,0 0,11.53125 1.9375,0 0,-11.53125 3.5,0 0,-1.8125 -8.9375,0 z m 10.53125,0 3.8125,7.875 0,5.46875 1.9375,0 0,-5.46875 3.78124,-7.875 -2.09375,0 -2.65624,5.875 -2.65625,-5.875 -2.125,0 z m 40.90624,0 0,13.34375 8.0625,0 0,-1.8125 -6.125,0 0,-11.53125 -1.9375,0 z m 10.9375,0 0,13.34375 8.0625,0 0,-1.8125 -6.125,0 0,-11.53125 -1.9375,0 z m 10.75,0 0,13.34375 8.125,0 0,-1.8125 -6.1875,0 0,-4 5.28125,0 0,-1.8125 -5.28125,0 0,-3.90625 6.1875,0 0,-1.8125 -8.125,0 z m 23.84375,0 0,13.34375 8.125,0 0,-1.8125 -6.1875,0 0,-4 5.28125,0 0,-1.8125 -5.28125,0 0,-3.90625 6.1875,0 0,-1.8125 -8.125,0 z m -53.59375,1.7189 c 0.75,0 1.42875,0.30625 1.875,0.8125 0.625,0.71125 0.75,1.47625 0.75,4.15625 0,2.68125 -0.125,3.41375 -0.75,4.125 -0.44625,0.50625 -1.125,0.84375 -1.875,0.84375 -0.74875,0 -1.4625,-0.3375 -1.90625,-0.84375 -0.625,-0.71125 -0.75,-1.44375 -0.75,-4.125 0,-2.68 0.125,-3.445 0.75,-4.15625 0.44375,-0.50625 1.1575,-0.8125 1.90625,-0.8125 z m -69.437493,0.0937 2.84375,0 c 1.285,0 2.15625,0.8125 2.15625,2.125 0,1.31125 -0.87125,2.0625 -2.15625,2.0625 l -2.84375,0 0,-4.1875 z m -52.875,22.21875 c -1.35625,0 -2.46875,0.48875 -3.34375,1.40625 -1.25,1.3125 -1.21875,2.8075 -1.21875,5.375 0,2.56875 -0.0312,4.0325 1.21875,5.34375 0.875,0.91875 1.9875,1.4375 3.34375,1.4375 1.3575,0 2.50125,-0.51875 3.375,-1.4375 1.25,-1.31125 1.21875,-2.775 1.21875,-5.34375 0,-2.5675 0.0312,-4.0625 -1.21875,-5.375 -0.87375,-0.9175 -2.0175,-1.40625 -3.375,-1.40625 z m 104.968743,0 c -2.645,0 -4.25,1.5825 -4.25,3.90625 0,1.08875 0.3125,1.94375 0.9375,2.5625 0.555,0.54375 1.36875,0.91375 2.40625,1.0625 l 1.5,0.21875 c 0.75,0.11125 1.055,0.2425 1.375,0.5625 0.33875,0.31875 0.5,0.79375 0.5,1.375 0,1.29375 -0.965,2.0625 -2.625,2.0625 -1.30375,0 -2.29125,-0.305 -3.21875,-1.28125 l -1.3125,1.34375 c 1.21375,1.29375 2.59125,1.75 4.5,1.75 2.66125,0 4.59375,-1.45 4.59375,-3.90625 0,-1.14375 -0.36625,-2.1125 -1.0625,-2.75 -0.535,-0.50625 -1.1675,-0.81375 -2.34375,-1 l -1.46875,-0.2187 c -0.5875,-0.0937 -1.115,-0.325 -1.4375,-0.625 -0.34,-0.31875 -0.46875,-0.7325 -0.46875,-1.21875 0,-1.18125 0.81,-2.09375 2.3125,-2.09375 1.06875,0 1.99625,0.2425 2.78125,1.03125 l 1.21875,-1.28125 c -1.08875,-1.0675 -2.26125,-1.5 -3.9375,-1.5 z m 11.34375,0 c -1.32125,0 -2.43875,0.48875 -3.3125,1.40625 -1.25,1.3125 -1.25,2.8075 -1.25,5.375 0,2.56875 0,4.0325 1.25,5.34375 0.87375,0.91875 1.99125,1.4375 3.3125,1.4375 2.305,0 4.1325,-1.43125 4.5625,-4.09375 l -1.96875,0 c -0.305,1.35 -1.1825,2.28125 -2.59375,2.28125 -0.75,0 -1.42875,-0.305 -1.875,-0.8125 -0.625,-0.7125 -0.75,-1.475 -0.75,-4.15625 0,-2.68 0.125,-3.4425 0.75,-4.15625 0.44625,-0.505 1.125,-0.8125 1.875,-0.8125 1.41125,0 2.29,0.93125 2.59375,2.28125 l 1.96875,0 c -0.4475,-2.6625 -2.22375,-4.09375 -4.5625,-4.09375 z m 41.8125,0 c -1.32125,0 -2.4675,0.48875 -3.34375,1.40625 -1.25,1.3125 -1.25,2.8075 -1.25,5.375 0,2.56875 0,4.0325 1.25,5.34375 0.87625,0.91875 2.0225,1.4375 3.34375,1.4375 2.3025,0 4.10375,-1.43125 4.53125,-4.09375 l -1.96875,0 c -0.3025,1.35 -1.15375,2.28125 -2.5625,2.28125 -0.75,0 -1.42875,-0.305 -1.875,-0.8125 -0.625,-0.7125 -0.78125,-1.475 -0.78125,-4.15625 0,-2.68 0.15625,-3.4425 0.78125,-4.15625 0.44625,-0.505 1.125,-0.8125 1.875,-0.8125 1.40875,0 2.2575,0.93125 2.5625,2.28125 l 1.96875,0 c -0.44625,-2.6625 -2.1925,-4.09375 -4.53125,-4.09375 z m 22.03125,0 c -2.645,0 -4.25,1.5825 -4.25,3.90625 0,1.08875 0.3125,1.94375 0.9375,2.5625 0.555,0.54375 1.36875,0.91375 2.40625,1.0625 l 1.5,0.21875 c 0.75,0.11125 1.08625,0.2425 1.40625,0.5625 0.33875,0.31875 0.5,0.79375 0.5,1.375 0,1.29375 -0.965,2.0625 -2.625,2.0625 -1.30375,0 -2.3225,-0.305 -3.25,-1.28125 l -1.28125,1.34375 c 1.21375,1.29375 2.59125,1.75 4.5,1.75 2.66125,0 4.5625,-1.45 4.5625,-3.90625 0,-1.14375 -0.335,-2.1125 -1.03125,-2.75 -0.535,-0.50625 -1.19875,-0.81375 -2.375,-1 l -1.46875,-0.2187 c -0.5875,-0.0937 -1.08375,-0.325 -1.40625,-0.625 -0.34,-0.31875 -0.5,-0.7325 -0.5,-1.21875 0,-1.18125 0.84125,-2.09375 2.34375,-2.09375 1.06875,0 1.965,0.2425 2.75,1.03125 l 1.25,-1.28125 c -1.08875,-1.0675 -2.2925,-1.5 -3.96875,-1.5 z m -172.312493,0.0937 0,13.34375 1.90625,0 0,-5.625 5.28125,0 0,-1.8125 -5.28125,0 0,-4.09375 6.21875,0 0,-1.8125 -8.125,0 z m 17.4375,0 -4.65625,13.34375 2.03125,0 0.875,-2.65625 5.03125,0 0.875,2.65625 2.0625,0 -4.6875,-13.34375 -1.53125,0 z m 8.46875,0 0,13.34375 1.90625,0 0,-5.25 2.90625,0 c 2.48125,0 4.0625,-1.70625 4.0625,-4.03125 0,-2.325 -1.58125,-4.0625 -4.0625,-4.0625 l -4.8125,0 z m 11.59375,0 0,13.34375 1.90625,0 0,-5.25 2.90625,0 c 2.48125,0 4.0625,-1.70625 4.0625,-4.03125 0,-2.325 -1.58125,-4.0625 -4.0625,-4.0625 l -4.8125,0 z m 11.5625,0 0,13.34375 8.0625,0 0,-1.8125 -6.125,0 0,-11.53125 -1.9375,0 z m 10.625,0 0,13.34375 1.9375,0 0,-13.34375 -1.9375,0 z m 5.593753,0 0,13.34375 8.125,0 0,-1.8125 -6.1875,0 0,-4 5.28125,0 0,-1.8125 -5.28125,0 0,-3.90625 6.1875,0 0,-1.8125 -8.125,0 z m 11.21875,0 0,13.34375 4.46875,0 c 1.32,0 2.4775,-0.40625 3.28125,-1.25 1.37625,-1.44375 1.28125,-3.56875 1.28125,-5.5 0,-1.93125 0.095,-3.9 -1.28125,-5.34375 -0.80375,-0.84375 -1.96125,-1.25 -3.28125,-1.25 l -4.46875,0 z m 39.34374,0 0,13.34375 1.9375,0 0,-13.34375 -1.9375,0 z m 5.84375,0 0,13.34375 8.125,0 0,-1.8125 -6.1875,0 0,-4 5.28125,0 0,-1.8125 -5.28125,0 0,-3.90625 6.1875,0 0,-1.8125 -8.125,0 z m 11.21875,0 0,13.34375 1.9375,0 0,-9.375 5.875,9.375 1.75,0 0,-13.34375 -1.90625,0 0,9.375 -5.875,-9.375 -1.78125,0 z m 24.75,0 0,13.34375 8.125,0 0,-1.8125 -6.21875,0 0,-4 5.28125,0 0,-1.8125 -5.28125,0 0,-3.90625 6.21875,0 0,-1.8125 -8.125,0 z m -165.499993,1.71875 c 0.75,0 1.46,0.30625 1.90625,0.8125 0.625,0.71125 0.75,1.47625 0.75,4.15625 0,2.68125 -0.125,3.41375 -0.75,4.125 -0.44625,0.50625 -1.15625,0.84375 -1.90625,0.84375 -0.75,0 -1.42875,-0.3375 -1.875,-0.84375 -0.62375,-0.71125 -0.75,-1.44375 -0.75,-4.125 0,-2.68 0.12625,-3.445 0.75,-4.15625 0.44625,-0.50625 1.125,-0.8125 1.875,-0.8125 z m 35.65625,0.0937 2.8125,0 c 1.33875,0 2.25,0.84375 2.25,2.25 0,1.40625 -0.91125,2.21875 -2.25,2.21875 l -2.8125,0 0,-4.46875 z m 11.59375,0 2.78125,0 c 1.33875,0 2.25,0.84375 2.25,2.25 0,1.40625 -0.91125,2.21875 -2.25,2.21875 l -2.78125,0 0,-4.46875 z m 39.031253,0 2.34375,0 c 0.90875,0 1.62125,0.2875 2.15625,0.90625 0.66125,0.76875 0.65625,2.0375 0.65625,3.875 0,1.8375 0.005,3.2625 -0.65625,4.03125 -0.535,0.61875 -1.2475,0.90625 -2.15625,0.90625 l -2.34375,0 0,-9.71875 z m -60.187503,1.21875 1.9375,5.90625 -3.90625,0 1.96875,-5.90625 z"
       id="logo_fg"
       style="fill:#000000;fill-opacity:1;fill-rule:nonzero;stroke:none" />
  </g>
</svg>
